<?xml version="1.0" encoding="UTF-8"?>
<svg width="800" height="400" viewBox="0 0 800 400" xmlns="http://www.w3.org/2000/svg">
    <defs>
        <!-- Palm Tree Pattern -->
        <pattern id="palm-pattern" x="0" y="0" width="400" height="400" patternUnits="userSpaceOnUse">
            <g transform="translate(0,0)">
                <!-- First Palm Tree -->
                <path d="M100,400 L120,250" stroke="#8B4513" stroke-width="15" fill="none"/>
                <path d="M120,250 Q80,220 60,240" stroke="#228B22" stroke-width="8" fill="none"/>
                <path d="M120,250 Q140,200 160,220" stroke="#228B22" stroke-width="8" fill="none"/>
                <path d="M120,250 Q160,230 180,250" stroke="#228B22" stroke-width="8" fill="none"/>
            </g>
            
            <g transform="translate(200,-50)">
                <!-- Second Palm Tree -->
                <path d="M100,400 L120,250" stroke="#8B4513" stroke-width="15" fill="none"/>
                <path d="M120,250 Q80,220 60,240" stroke="#228B22" stroke-width="8" fill="none"/>
                <path d="M120,250 Q140,200 160,220" stroke="#228B22" stroke-width="8" fill="none"/>
                <path d="M120,250 Q160,230 180,250" stroke="#228B22" stroke-width="8" fill="none"/>
            </g>
        </pattern>
    </defs>
    
    <!-- Background with Palm Pattern -->
    <rect width="800" height="400" fill="url(#palm-pattern)" opacity="0.15"/>
    
    <!-- Additional Decorative Elements -->
    <g transform="translate(600,100)">
        <path d="M0,0 Q20,-20 40,0" stroke="#228B22" stroke-width="4" fill="none" opacity="0.2"/>
        <path d="M10,10 Q30,-10 50,10" stroke="#228B22" stroke-width="4" fill="none" opacity="0.2"/>
    </g>
    
    <g transform="translate(100,50)">
        <path d="M0,0 Q20,-20 40,0" stroke="#228B22" stroke-width="4" fill="none" opacity="0.2"/>
        <path d="M10,10 Q30,-10 50,10" stroke="#228B22" stroke-width="4" fill="none" opacity="0.2"/>
    </g>
</svg> 